<?xml version="1.0" encoding="UTF-8" standalone="no"?>
<!DOCTYPE svg PUBLIC "-//W3C//DTD SVG 1.1//EN" "http://www.w3.org/Graphics/SVG/1.1/DTD/svg11.dtd">
<svg width="100%" height="100%" viewBox="0 0 3200 900" version="1.1" xmlns="http://www.w3.org/2000/svg" xmlns:xlink="http://www.w3.org/1999/xlink" xml:space="preserve" xmlns:serif="http://www.serif.com/" style="fill-rule:evenodd;clip-rule:evenodd;stroke-linejoin:round;stroke-miterlimit:2;">
    <rect id="bg" x="0" y="0" width="3200" height="900" style="fill:url(#_Linear1);"/>
    <g transform="matrix(7.7252,-1.2376,1.2376,7.7252,-71.3946,118.799)">
        <g transform="matrix(4.16667,0,0,4.16667,0,0)">
            <path d="M3.325,17.964C3.821,18.01 4.315,17.924 4.797,17.808C5.285,17.691 5.767,17.543 6.264,17.466C6.787,17.386 7.322,17.386 7.846,17.461C8.349,17.534 8.842,17.663 9.342,17.756C9.828,17.847 10.325,17.905 10.817,17.832C10.878,17.824 10.938,17.813 10.998,17.8C11.041,17.79 11.022,17.726 10.98,17.735C10.489,17.839 9.984,17.8 9.493,17.715C8.994,17.629 8.504,17.499 8.004,17.417C7.491,17.333 6.971,17.314 6.454,17.373C5.952,17.431 5.467,17.57 4.979,17.694C4.498,17.816 4.006,17.924 3.507,17.909C3.446,17.907 3.385,17.903 3.325,17.897C3.281,17.893 3.282,17.96 3.325,17.964Z" style="fill:white;fill-rule:nonzero;"/>
        </g>
        <g transform="matrix(4.16667,0,0,4.16667,0,0)">
            <path d="M3.2,17.955C3.226,18.152 3.224,18.353 3.192,18.55C3.189,18.568 3.196,18.586 3.216,18.592C3.685,18.717 4.171,18.688 4.645,18.604C5.133,18.518 5.61,18.377 6.097,18.284C6.341,18.236 6.587,18.201 6.836,18.191C7.104,18.181 7.371,18.205 7.635,18.248C8.157,18.332 8.666,18.48 9.19,18.548C9.671,18.611 10.18,18.61 10.636,18.427C10.691,18.405 10.745,18.38 10.798,18.354C10.836,18.334 10.802,18.277 10.764,18.296C10.325,18.517 9.822,18.545 9.341,18.498C8.82,18.447 8.315,18.302 7.802,18.208C7.54,18.161 7.275,18.124 7.009,18.122C6.765,18.118 6.521,18.143 6.28,18.182C5.794,18.261 5.32,18.399 4.838,18.498C4.371,18.595 3.884,18.657 3.41,18.567C3.351,18.556 3.292,18.542 3.233,18.527C3.241,18.54 3.25,18.554 3.257,18.568C3.29,18.365 3.294,18.159 3.268,17.955C3.262,17.912 3.195,17.911 3.2,17.955Z" style="fill:white;fill-rule:nonzero;"/>
        </g>
        <g transform="matrix(4.16667,0,0,4.16667,0,0)">
            <path d="M11.002,17.841C11.009,17.819 11.017,17.796 11.024,17.774C11.002,17.771 10.98,17.768 10.958,17.765C10.958,17.835 10.958,17.906 10.959,17.976L10.959,18.082C10.959,18.112 10.962,18.145 10.957,18.176C10.951,18.206 10.933,18.219 10.907,18.231C10.876,18.245 10.843,18.255 10.812,18.267C10.743,18.292 10.675,18.319 10.606,18.344C10.566,18.36 10.584,18.425 10.625,18.41C10.7,18.381 10.775,18.353 10.851,18.325C10.911,18.301 10.987,18.285 11.014,18.219C11.026,18.189 11.026,18.157 11.026,18.125L11.026,18.009C11.026,17.928 11.025,17.846 11.025,17.765C11.025,17.726 10.971,17.72 10.959,17.755C10.951,17.778 10.944,17.8 10.937,17.823C10.922,17.865 10.988,17.882 11.002,17.841Z" style="fill:white;fill-rule:nonzero;"/>
        </g>
        <g transform="matrix(4.16667,0,0,4.16667,0,0)">
            <path d="M3.295,18.656C3.32,18.852 3.328,19.051 3.317,19.249C3.312,19.344 3.299,19.438 3.29,19.533C3.282,19.614 3.287,19.702 3.341,19.767C3.391,19.827 3.476,19.856 3.547,19.818C3.53,19.808 3.513,19.798 3.496,19.789C3.5,19.899 3.503,20.009 3.506,20.12C3.509,20.219 3.508,20.32 3.521,20.418C3.533,20.507 3.56,20.594 3.621,20.662C3.676,20.723 3.759,20.765 3.844,20.755C3.833,20.744 3.821,20.733 3.81,20.721C3.818,20.835 3.829,20.949 3.842,21.062C3.849,21.116 3.856,21.17 3.863,21.224C3.87,21.274 3.876,21.324 3.896,21.37C3.932,21.453 4.012,21.495 4.092,21.525C4.168,21.553 4.243,21.58 4.311,21.624C4.38,21.671 4.439,21.737 4.437,21.825C4.436,21.869 4.503,21.869 4.504,21.825C4.508,21.658 4.352,21.556 4.215,21.498C4.14,21.467 4.05,21.451 3.991,21.392C3.957,21.358 3.945,21.313 3.937,21.267C3.929,21.213 3.922,21.16 3.915,21.106C3.899,20.978 3.887,20.85 3.877,20.721C3.876,20.705 3.863,20.685 3.844,20.687C3.767,20.697 3.697,20.655 3.652,20.594C3.604,20.527 3.588,20.441 3.583,20.361C3.569,20.17 3.569,19.979 3.564,19.789C3.563,19.763 3.536,19.748 3.513,19.759C3.479,19.778 3.441,19.765 3.413,19.744C3.379,19.717 3.363,19.678 3.357,19.637C3.35,19.587 3.356,19.537 3.362,19.488C3.369,19.434 3.375,19.38 3.379,19.326C3.396,19.103 3.391,18.878 3.363,18.656C3.357,18.614 3.29,18.613 3.295,18.656Z" style="fill:white;fill-rule:nonzero;"/>
        </g>
        <g transform="matrix(4.16667,0,0,4.16667,0,0)">
            <path d="M10.708,18.415C10.765,18.431 10.822,18.417 10.868,18.381C10.849,18.373 10.83,18.365 10.81,18.357C10.823,18.544 10.835,18.731 10.848,18.918C10.86,19.1 10.876,19.282 10.884,19.463C10.886,19.498 10.887,19.538 10.864,19.566C10.841,19.594 10.802,19.608 10.775,19.632C10.728,19.674 10.708,19.736 10.703,19.798C10.697,19.867 10.709,19.935 10.712,20.003C10.717,20.078 10.711,20.153 10.689,20.225C10.642,20.38 10.502,20.512 10.332,20.489C10.315,20.487 10.296,20.506 10.298,20.523C10.339,20.874 10.173,21.238 9.89,21.448C9.809,21.508 9.719,21.556 9.624,21.587C9.582,21.601 9.6,21.666 9.641,21.653C10.001,21.534 10.274,21.209 10.351,20.84C10.372,20.736 10.378,20.629 10.365,20.523C10.354,20.534 10.343,20.545 10.332,20.557C10.48,20.577 10.624,20.488 10.7,20.365C10.743,20.296 10.766,20.218 10.776,20.138C10.786,20.061 10.778,19.985 10.772,19.908C10.767,19.844 10.761,19.771 10.794,19.714C10.813,19.682 10.843,19.666 10.873,19.646C10.904,19.624 10.93,19.598 10.942,19.561C10.955,19.524 10.953,19.484 10.951,19.445C10.948,19.397 10.944,19.348 10.941,19.299C10.935,19.204 10.928,19.109 10.922,19.013C10.907,18.794 10.893,18.576 10.878,18.357C10.876,18.327 10.843,18.315 10.82,18.333C10.793,18.355 10.758,18.36 10.726,18.35C10.684,18.338 10.666,18.404 10.708,18.415Z" style="fill:white;fill-rule:nonzero;"/>
        </g>
        <g transform="matrix(4.16667,0,0,4.16667,0,0)">
            <path d="M4.379,21.877C4.765,22.049 5.154,22.213 5.553,22.349C5.948,22.484 6.354,22.588 6.769,22.64C7.131,22.685 7.498,22.686 7.859,22.629C8.195,22.577 8.524,22.476 8.828,22.322C9.127,22.17 9.4,21.963 9.616,21.705C9.643,21.672 9.669,21.639 9.694,21.606C9.72,21.571 9.662,21.538 9.636,21.572C9.437,21.835 9.18,22.049 8.893,22.21C8.602,22.373 8.282,22.482 7.955,22.544C7.611,22.61 7.261,22.621 6.913,22.588C6.504,22.55 6.101,22.456 5.71,22.331C5.317,22.205 4.935,22.048 4.557,21.882C4.509,21.862 4.461,21.84 4.414,21.82C4.375,21.802 4.34,21.86 4.379,21.877Z" style="fill:white;fill-rule:nonzero;"/>
        </g>
        <g transform="matrix(4.16667,0,0,4.16667,0,0)">
            <path d="M3.468,19.782C3.967,19.894 4.465,20.004 4.971,20.083C5.46,20.16 5.953,20.214 6.448,20.242C6.941,20.268 7.437,20.267 7.93,20.233C8.417,20.199 8.904,20.131 9.381,20.026C9.859,19.919 10.33,19.775 10.782,19.587C10.838,19.564 10.893,19.54 10.948,19.516C10.988,19.499 10.954,19.441 10.914,19.458C10.467,19.654 10.003,19.808 9.529,19.922C9.058,20.036 8.577,20.111 8.094,20.152C7.606,20.194 7.116,20.202 6.627,20.182C6.134,20.163 5.642,20.115 5.153,20.043C4.66,19.971 4.171,19.872 3.685,19.761C3.618,19.747 3.552,19.732 3.486,19.716C3.443,19.707 3.425,19.772 3.468,19.782Z" style="fill:white;fill-rule:nonzero;"/>
        </g>
        <g transform="matrix(4.16667,0,0,4.16667,0,0)">
            <path d="M3.762,20.72C4.189,20.854 4.625,20.959 5.065,21.036C5.503,21.111 5.946,21.158 6.39,21.176C6.837,21.195 7.285,21.185 7.73,21.145C8.175,21.106 8.617,21.039 9.053,20.942C9.271,20.893 9.488,20.837 9.703,20.775C9.893,20.719 10.097,20.667 10.262,20.553C10.302,20.525 10.339,20.494 10.373,20.458C10.402,20.427 10.355,20.379 10.325,20.411C10.187,20.555 9.992,20.617 9.806,20.673C9.594,20.739 9.38,20.796 9.165,20.847C8.736,20.948 8.301,21.021 7.863,21.065C7.424,21.11 6.982,21.125 6.541,21.114C6.101,21.102 5.662,21.062 5.227,20.994C4.791,20.925 4.359,20.829 3.936,20.703C3.884,20.688 3.832,20.671 3.78,20.656C3.738,20.642 3.721,20.707 3.762,20.72Z" style="fill:white;fill-rule:nonzero;"/>
        </g>
        <g transform="matrix(4.16667,0,0,4.16667,0,0)">
            <path d="M4.159,21.504C4.522,21.606 4.891,21.686 5.263,21.745C5.635,21.802 6.01,21.839 6.386,21.855C6.762,21.871 7.14,21.864 7.515,21.836C7.891,21.808 8.264,21.759 8.634,21.689C9.004,21.618 9.37,21.526 9.729,21.412C9.773,21.398 9.818,21.383 9.863,21.369C9.904,21.355 9.886,21.29 9.845,21.303C9.489,21.421 9.126,21.519 8.759,21.595C8.393,21.67 8.022,21.725 7.65,21.757C7.278,21.79 6.905,21.802 6.531,21.792C6.156,21.783 5.781,21.751 5.41,21.699C5.04,21.646 4.674,21.572 4.313,21.476C4.268,21.464 4.222,21.452 4.177,21.439C4.135,21.427 4.117,21.493 4.159,21.504Z" style="fill:white;fill-rule:nonzero;"/>
        </g>
        <g transform="matrix(4.16667,0,0,4.16667,0,0)">
            <path d="M9.718,21.412C9.761,21.412 9.761,21.344 9.718,21.344C9.674,21.344 9.674,21.412 9.718,21.412Z" style="fill:white;fill-rule:nonzero;"/>
        </g>
        <g transform="matrix(4.16667,0,0,4.16667,0,0)">
            <path d="M9.718,21.386C9.761,21.386 9.761,21.319 9.718,21.319C9.674,21.319 9.674,21.386 9.718,21.386Z" style="fill:white;fill-rule:nonzero;"/>
        </g>
        <g transform="matrix(4.16667,0,0,4.16667,0,0)">
            <path d="M10.596,17.769C10.801,17.564 11.117,17.383 11.414,17.491C11.691,17.592 11.819,17.907 11.873,18.173C11.935,18.481 11.913,18.804 11.818,19.103C11.771,19.253 11.704,19.399 11.619,19.533C11.527,19.678 11.412,19.807 11.293,19.931C11.028,20.206 10.76,20.478 10.494,20.751C10.46,20.787 10.427,20.821 10.393,20.856C10.362,20.887 10.41,20.935 10.44,20.904C10.721,20.615 11.002,20.327 11.282,20.039C11.41,19.908 11.536,19.775 11.64,19.623C11.733,19.489 11.807,19.34 11.862,19.186C11.972,18.875 12.002,18.539 11.949,18.214C11.901,17.929 11.78,17.606 11.511,17.461C11.215,17.303 10.875,17.441 10.637,17.64C10.606,17.665 10.577,17.693 10.548,17.721C10.517,17.752 10.565,17.8 10.596,17.769Z" style="fill:white;fill-rule:nonzero;"/>
        </g>
        <g transform="matrix(4.16667,0,0,4.16667,0,0)">
            <path d="M10.82,17.812C10.983,17.653 11.248,17.654 11.433,17.772C11.638,17.904 11.742,18.148 11.756,18.384C11.772,18.657 11.689,18.931 11.578,19.177C11.472,19.412 11.333,19.628 11.179,19.832C11.003,20.065 10.808,20.282 10.612,20.498C10.584,20.53 10.631,20.578 10.66,20.545C11.023,20.144 11.395,19.732 11.625,19.237C11.745,18.98 11.836,18.693 11.825,18.406C11.815,18.15 11.711,17.894 11.502,17.738C11.29,17.581 10.967,17.574 10.772,17.764C10.742,17.794 10.789,17.842 10.82,17.812Z" style="fill:white;fill-rule:nonzero;"/>
        </g>
        <g transform="matrix(4.16667,0,0,4.16667,0,0)">
            <path d="M3.651,17.852C3.456,17.588 3.076,17.528 2.787,17.664C2.46,17.817 2.277,18.17 2.239,18.516C2.196,18.914 2.314,19.321 2.471,19.682C2.613,20.008 2.807,20.311 3.041,20.579C3.276,20.845 3.552,21.077 3.858,21.258C3.895,21.28 3.933,21.301 3.971,21.322C4.009,21.343 4.043,21.285 4.005,21.264C3.706,21.101 3.434,20.893 3.198,20.648C2.962,20.404 2.763,20.123 2.61,19.82C2.534,19.668 2.469,19.51 2.417,19.349C2.356,19.159 2.311,18.961 2.301,18.761C2.283,18.411 2.387,18.038 2.673,17.813C2.797,17.715 2.948,17.661 3.105,17.661C3.253,17.661 3.406,17.707 3.519,17.806C3.546,17.831 3.571,17.857 3.593,17.886C3.618,17.921 3.677,17.887 3.651,17.852Z" style="fill:white;fill-rule:nonzero;"/>
        </g>
        <g transform="matrix(4.16667,0,0,4.16667,0,0)">
            <path d="M3.369,17.844C3.148,17.722 2.884,17.791 2.695,17.942C2.598,18.019 2.52,18.121 2.472,18.236C2.411,18.382 2.391,18.542 2.398,18.701C2.413,19.012 2.521,19.318 2.645,19.602C2.763,19.873 2.911,20.131 3.083,20.372C3.28,20.645 3.508,20.894 3.764,21.112C3.797,21.14 3.845,21.092 3.812,21.064C3.377,20.694 3.022,20.233 2.772,19.719C2.645,19.455 2.534,19.17 2.485,18.879C2.439,18.608 2.458,18.294 2.649,18.08C2.814,17.892 3.101,17.772 3.335,17.903C3.373,17.924 3.407,17.866 3.369,17.844Z" style="fill:white;fill-rule:nonzero;"/>
        </g>
        <g transform="matrix(4.16667,0,0,4.16667,0,0)">
            <path d="M3.281,18.11C3.287,18.098 3.293,18.086 3.3,18.075C3.31,18.059 3.311,18.056 3.329,18.056C3.358,18.056 3.387,18.059 3.416,18.058C3.475,18.058 3.533,18.053 3.591,18.047C3.707,18.034 3.822,18.016 3.937,18C4.174,17.967 4.412,17.935 4.649,17.9C4.783,17.88 4.916,17.863 5.049,17.839C5.058,17.837 5.056,17.823 5.047,17.824C4.822,17.846 4.599,17.881 4.375,17.913C4.149,17.944 3.923,17.977 3.697,18.008C3.567,18.027 3.438,18.038 3.307,18.034C3.302,18.034 3.299,18.038 3.298,18.041C3.289,18.063 3.281,18.084 3.272,18.106C3.271,18.111 3.278,18.115 3.281,18.11Z" style="fill:white;fill-rule:nonzero;"/>
        </g>
        <g transform="matrix(4.16667,0,0,4.16667,0,0)">
            <path d="M3.25,18.141C3.739,18.117 4.226,18.062 4.709,17.988C4.849,17.967 4.987,17.943 5.125,17.917C5.131,17.916 5.128,17.907 5.122,17.908C4.636,17.979 4.148,18.04 3.659,18.088C3.523,18.102 3.386,18.115 3.25,18.127C3.241,18.127 3.241,18.142 3.25,18.141Z" style="fill:white;fill-rule:nonzero;"/>
        </g>
        <g transform="matrix(4.16667,0,0,4.16667,0,0)">
            <path d="M3.4,18.27C3.585,18.267 3.772,18.245 3.956,18.222C4.138,18.2 4.321,18.175 4.5,18.138C4.511,18.135 4.506,18.12 4.496,18.122C4.312,18.147 4.129,18.177 3.945,18.199C3.764,18.221 3.581,18.234 3.4,18.255C3.391,18.256 3.39,18.271 3.4,18.27Z" style="fill:white;fill-rule:nonzero;"/>
        </g>
        <g transform="matrix(4.16667,0,0,4.16667,0,0)">
            <path d="M3.374,18.42C3.696,18.454 4.031,18.445 4.349,18.38C4.358,18.378 4.354,18.366 4.345,18.367C4.183,18.389 4.021,18.409 3.856,18.415C3.695,18.422 3.534,18.418 3.374,18.409C3.365,18.408 3.366,18.42 3.374,18.42Z" style="fill:white;fill-rule:nonzero;"/>
        </g>
        <g transform="matrix(4.16667,0,0,4.16667,0,0)">
            <path d="M3.272,18.782C3.675,18.831 4.087,18.824 4.49,18.77C4.602,18.755 4.714,18.737 4.825,18.713C4.835,18.71 4.831,18.696 4.821,18.698C4.421,18.764 4.02,18.802 3.615,18.79C3.5,18.787 3.386,18.781 3.272,18.773C3.267,18.772 3.267,18.781 3.272,18.782Z" style="fill:white;fill-rule:nonzero;"/>
        </g>
        <g transform="matrix(4.16667,0,0,4.16667,0,0)">
            <path d="M3.325,18.972C3.597,18.974 3.87,18.956 4.141,18.937C4.411,18.919 4.68,18.895 4.949,18.864C5.099,18.846 5.249,18.827 5.398,18.805C5.406,18.803 5.405,18.79 5.396,18.79C4.859,18.851 4.32,18.899 3.78,18.932C3.628,18.941 3.477,18.947 3.325,18.957C3.316,18.958 3.315,18.971 3.325,18.972Z" style="fill:white;fill-rule:nonzero;"/>
        </g>
        <g transform="matrix(4.16667,0,0,4.16667,0,0)">
            <path d="M3.375,19.139C3.566,19.144 3.762,19.141 3.951,19.112C3.961,19.111 3.959,19.093 3.949,19.094C3.757,19.107 3.567,19.123 3.375,19.122C3.363,19.122 3.363,19.139 3.375,19.139Z" style="fill:white;fill-rule:nonzero;"/>
        </g>
        <g transform="matrix(4.16667,0,0,4.16667,0,0)">
            <path d="M3.25,19.497C3.678,19.502 4.105,19.515 4.533,19.541C4.962,19.568 5.39,19.608 5.816,19.662C6.06,19.693 6.302,19.729 6.543,19.767C6.55,19.768 6.553,19.757 6.546,19.756C6.124,19.682 5.699,19.624 5.272,19.581C4.843,19.537 4.412,19.506 3.98,19.492C3.736,19.484 3.493,19.481 3.25,19.485C3.242,19.485 3.242,19.497 3.25,19.497Z" style="fill:white;fill-rule:nonzero;"/>
        </g>
        <g transform="matrix(4.16667,0,0,4.16667,0,0)">
            <path d="M3.349,19.653C3.746,19.638 4.143,19.639 4.539,19.657C4.937,19.675 5.335,19.711 5.731,19.766C5.952,19.796 6.173,19.831 6.393,19.871C6.402,19.872 6.406,19.858 6.396,19.856C6.008,19.777 5.617,19.718 5.223,19.68C4.824,19.641 4.424,19.622 4.023,19.622C3.798,19.622 3.574,19.629 3.349,19.643C3.343,19.644 3.343,19.653 3.349,19.653Z" style="fill:white;fill-rule:nonzero;"/>
        </g>
        <g transform="matrix(4.16667,0,0,4.16667,0,0)">
            <path d="M3.677,19.71C4.179,19.768 4.682,19.826 5.185,19.88C5.688,19.934 6.19,19.991 6.693,20.043C6.977,20.074 7.259,20.106 7.542,20.131C7.551,20.132 7.551,20.12 7.542,20.119C7.041,20.056 6.537,20.005 6.034,19.952C5.531,19.897 5.029,19.842 4.526,19.789C4.243,19.758 3.959,19.73 3.677,19.701C3.67,19.701 3.67,19.71 3.677,19.71Z" style="fill:white;fill-rule:nonzero;"/>
        </g>
        <g transform="matrix(4.16667,0,0,4.16667,0,0)">
            <path d="M5.422,20.029L5.847,20.029L5.422,20.029Z" style="fill:white;fill-rule:nonzero;"/>
        </g>
        <g transform="matrix(4.16667,0,0,4.16667,0,0)">
            <path d="M3.564,19.972C3.564,19.974 3.556,19.972 3.557,19.972C3.544,19.968 3.563,19.957 3.569,19.956C3.578,19.954 3.588,19.956 3.596,19.957C3.621,19.961 3.645,19.967 3.669,19.973C3.717,19.983 3.766,19.994 3.814,20.002C3.911,20.022 4.008,20.039 4.105,20.054C4.297,20.084 4.491,20.108 4.684,20.125C4.797,20.135 4.91,20.144 5.023,20.146C5.034,20.146 5.034,20.129 5.023,20.128C4.773,20.106 4.523,20.088 4.274,20.054C4.151,20.038 4.028,20.018 3.906,19.997C3.843,19.985 3.781,19.973 3.718,19.961C3.689,19.956 3.661,19.95 3.632,19.944C3.611,19.94 3.588,19.933 3.566,19.936C3.545,19.94 3.517,19.967 3.543,19.984C3.559,19.995 3.586,19.989 3.577,19.967C3.573,19.959 3.561,19.964 3.564,19.972Z" style="fill:white;fill-rule:nonzero;"/>
        </g>
        <g transform="matrix(4.16667,0,0,4.16667,0,0)">
            <path d="M3.67,20.145C4.071,20.234 4.488,20.279 4.898,20.278C4.906,20.278 4.906,20.265 4.898,20.265C4.694,20.255 4.491,20.243 4.288,20.219C4.082,20.197 3.878,20.165 3.675,20.129C3.664,20.127 3.66,20.143 3.67,20.145Z" style="fill:white;fill-rule:nonzero;"/>
        </g>
        <g transform="matrix(4.16667,0,0,4.16667,0,0)">
            <path d="M3.673,20.256C3.863,20.295 4.055,20.338 4.249,20.362C4.257,20.363 4.259,20.349 4.25,20.347C4.062,20.3 3.868,20.274 3.676,20.244C3.668,20.243 3.665,20.254 3.673,20.256Z" style="fill:white;fill-rule:nonzero;"/>
        </g>
        <g transform="matrix(4.16667,0,0,4.16667,0,0)">
            <path d="M3.799,20.456L3.874,20.456C3.876,20.456 3.876,20.452 3.874,20.452L3.799,20.452C3.796,20.452 3.796,20.456 3.799,20.456Z" style="fill:white;fill-rule:nonzero;"/>
        </g>
        <g transform="matrix(4.16667,0,0,4.16667,0,0)">
            <path d="M3.922,20.934C4.321,21.053 4.732,21.128 5.147,21.156C5.155,21.157 5.155,21.146 5.147,21.145C4.735,21.106 4.326,21.032 3.926,20.918C3.916,20.915 3.912,20.931 3.922,20.934Z" style="fill:white;fill-rule:nonzero;"/>
        </g>
        <g transform="matrix(4.16667,0,0,4.16667,0,0)">
            <path d="M3.946,21.113C4.145,21.179 4.348,21.228 4.555,21.261C4.655,21.277 4.755,21.289 4.856,21.296C4.961,21.304 5.067,21.312 5.172,21.308C5.181,21.308 5.18,21.296 5.172,21.295C5.069,21.29 4.965,21.287 4.862,21.277C4.758,21.267 4.654,21.253 4.551,21.237C4.348,21.205 4.147,21.158 3.95,21.099C3.941,21.096 3.937,21.11 3.946,21.113Z" style="fill:white;fill-rule:nonzero;"/>
        </g>
        <g transform="matrix(4.16667,0,0,4.16667,0,0)">
            <path d="M4.047,21.223C4.013,21.238 4.01,21.284 4.035,21.31C4.052,21.328 4.079,21.334 4.103,21.337C4.14,21.342 4.178,21.345 4.215,21.349C4.375,21.365 4.537,21.385 4.697,21.394C4.707,21.395 4.709,21.378 4.7,21.376C4.58,21.36 4.458,21.351 4.337,21.34C4.276,21.334 4.215,21.329 4.154,21.323C4.127,21.32 4.098,21.32 4.073,21.31C4.047,21.3 4.016,21.256 4.054,21.239C4.063,21.235 4.056,21.219 4.047,21.223Z" style="fill:white;fill-rule:nonzero;"/>
        </g>
        <g transform="matrix(4.16667,0,0,4.16667,0,0)">
            <path d="M4.45,21.698C4.897,21.827 5.357,21.908 5.822,21.937C5.955,21.946 6.088,21.952 6.222,21.95C6.229,21.95 6.229,21.938 6.222,21.937C5.989,21.929 5.757,21.917 5.526,21.89C5.294,21.863 5.065,21.825 4.837,21.776C4.708,21.748 4.581,21.717 4.454,21.683C4.444,21.68 4.44,21.695 4.45,21.698Z" style="fill:white;fill-rule:nonzero;"/>
        </g>
        <g transform="matrix(4.16667,0,0,4.16667,0,0)">
            <path d="M5.447,21.954C5.449,21.954 5.449,21.951 5.447,21.951C5.446,21.951 5.446,21.954 5.447,21.954Z" style="fill:white;fill-rule:nonzero;"/>
        </g>
        <g transform="matrix(4.16667,0,0,4.16667,0,0)">
            <path d="M4.468,21.807C4.994,22.01 5.56,22.053 6.119,22.058C6.278,22.059 6.437,22.058 6.597,22.052C6.605,22.052 6.605,22.039 6.597,22.039C6.316,22.033 6.035,22.038 5.754,22.024C5.477,22.009 5.2,21.982 4.927,21.923C4.773,21.89 4.62,21.849 4.472,21.794C4.464,21.792 4.461,21.804 4.468,21.807Z" style="fill:white;fill-rule:nonzero;"/>
        </g>
        <g transform="matrix(4.16667,0,0,4.16667,0,0)">
            <path d="M4.917,22.021C5.267,22.118 5.625,22.175 5.986,22.2C6.089,22.207 6.193,22.212 6.296,22.209C6.307,22.209 6.307,22.194 6.296,22.193C6.063,22.181 5.832,22.169 5.6,22.137C5.372,22.106 5.146,22.061 4.922,22.006C4.913,22.004 4.909,22.018 4.917,22.021Z" style="fill:white;fill-rule:nonzero;"/>
        </g>
        <g transform="matrix(4.16667,0,0,4.16667,0,0)">
            <path d="M10.521,19.717C10.508,19.712 10.495,19.707 10.482,19.704C10.477,19.701 10.47,19.699 10.464,19.697C10.461,19.696 10.458,19.694 10.455,19.693C10.451,19.692 10.447,19.692 10.443,19.692C10.439,19.691 10.435,19.695 10.434,19.699C10.433,19.703 10.435,19.707 10.439,19.708C10.442,19.711 10.445,19.713 10.449,19.714C10.452,19.715 10.455,19.716 10.459,19.717C10.464,19.72 10.471,19.722 10.477,19.724C10.49,19.728 10.502,19.733 10.515,19.737C10.52,19.739 10.526,19.735 10.527,19.73C10.529,19.724 10.525,19.719 10.521,19.717Z" style="fill:white;fill-rule:nonzero;"/>
        </g>
        <g transform="matrix(4.16667,0,0,4.16667,0,0)">
            <path d="M10.467,19.884C10.491,19.875 10.502,19.847 10.486,19.826C10.483,19.821 10.477,19.817 10.471,19.819C10.088,19.968 9.699,20.092 9.294,20.165C9.177,20.185 9.061,20.203 8.943,20.217C8.935,20.218 8.935,20.23 8.943,20.23C9.355,20.192 9.764,20.106 10.155,19.97C10.265,19.932 10.375,19.892 10.481,19.844C10.476,19.843 10.47,19.842 10.465,19.842C10.472,19.852 10.47,19.86 10.459,19.866C10.45,19.872 10.456,19.887 10.467,19.884Z" style="fill:white;fill-rule:nonzero;"/>
        </g>
        <g transform="matrix(4.16667,0,0,4.16667,0,0)">
            <path d="M10.541,19.946C10.125,20.112 9.693,20.238 9.253,20.316C9.125,20.338 8.997,20.356 8.869,20.373C8.86,20.374 8.86,20.387 8.869,20.387C9.316,20.351 9.761,20.251 10.187,20.108C10.309,20.067 10.429,20.022 10.548,19.973C10.564,19.966 10.557,19.94 10.541,19.946Z" style="fill:white;fill-rule:nonzero;"/>
        </g>
        <g transform="matrix(4.16667,0,0,4.16667,0,0)">
            <path d="M10.509,20.103C10.412,20.128 10.318,20.165 10.222,20.193C10.129,20.221 10.036,20.248 9.943,20.271C9.751,20.32 9.56,20.361 9.366,20.397C9.355,20.399 9.357,20.418 9.369,20.417C9.564,20.392 9.76,20.354 9.952,20.305C10.049,20.281 10.146,20.254 10.242,20.225C10.335,20.197 10.431,20.17 10.52,20.129C10.535,20.123 10.524,20.099 10.509,20.103Z" style="fill:white;fill-rule:nonzero;"/>
        </g>
        <g transform="matrix(4.16667,0,0,4.16667,0,0)">
            <path d="M10.614,20.242C10.405,20.313 10.192,20.379 9.987,20.461C9.973,20.467 9.979,20.49 9.994,20.485C10.206,20.423 10.413,20.342 10.621,20.27C10.639,20.263 10.631,20.236 10.614,20.242Z" style="fill:white;fill-rule:nonzero;"/>
        </g>
        <g transform="matrix(4.16667,0,0,4.16667,0,0)">
            <path d="M10.044,20.66C9.853,20.75 9.655,20.83 9.453,20.893C9.252,20.957 9.047,20.999 8.84,21.038C8.832,21.039 8.833,21.054 8.842,21.053C9.053,21.031 9.263,20.982 9.465,20.919C9.669,20.858 9.868,20.779 10.057,20.681C10.072,20.674 10.059,20.653 10.044,20.66Z" style="fill:white;fill-rule:nonzero;"/>
        </g>
        <g transform="matrix(4.16667,0,0,4.16667,0,0)">
            <path d="M9.989,20.76C9.805,20.807 9.625,20.87 9.441,20.92C9.256,20.972 9.07,21.02 8.883,21.063C8.777,21.087 8.67,21.108 8.565,21.134C8.554,21.137 8.559,21.152 8.569,21.15C8.759,21.123 8.948,21.078 9.134,21.034C9.321,20.988 9.506,20.937 9.69,20.881C9.792,20.851 9.895,20.82 9.994,20.78C10.006,20.775 10.002,20.756 9.989,20.76Z" style="fill:white;fill-rule:nonzero;"/>
        </g>
        <g transform="matrix(4.16667,0,0,4.16667,0,0)">
            <path d="M9.895,20.908C9.912,20.897 9.929,20.885 9.947,20.875C9.96,20.87 9.951,20.851 9.938,20.854C9.885,20.865 9.832,20.893 9.78,20.913C9.728,20.933 9.675,20.952 9.622,20.97C9.516,21.007 9.408,21.041 9.3,21.072C9.083,21.133 8.864,21.182 8.642,21.223C8.634,21.224 8.636,21.239 8.644,21.238C8.995,21.195 9.338,21.107 9.67,20.988C9.718,20.971 9.766,20.953 9.814,20.934C9.857,20.917 9.908,20.902 9.947,20.875C9.943,20.87 9.938,20.863 9.933,20.857C9.919,20.871 9.902,20.882 9.887,20.894C9.878,20.9 9.886,20.914 9.895,20.908Z" style="fill:white;fill-rule:nonzero;"/>
        </g>
        <g transform="matrix(4.16667,0,0,4.16667,0,0)">
            <path d="M9.841,20.996C9.728,21.028 9.615,21.06 9.503,21.093C9.391,21.126 9.276,21.155 9.167,21.198C9.155,21.202 9.16,21.219 9.172,21.216C9.287,21.193 9.398,21.154 9.511,21.122C9.623,21.088 9.735,21.054 9.847,21.019C9.862,21.015 9.856,20.992 9.841,20.996Z" style="fill:white;fill-rule:nonzero;"/>
        </g>
        <g transform="matrix(4.16667,0,0,4.16667,0,0)">
            <path d="M9.439,21.563C9.365,21.579 9.294,21.605 9.222,21.626C9.15,21.648 9.078,21.667 9.005,21.687C8.859,21.725 8.711,21.751 8.565,21.787C8.553,21.789 8.555,21.81 8.568,21.809C8.718,21.791 8.867,21.754 9.013,21.717C9.086,21.699 9.159,21.678 9.23,21.657C9.303,21.635 9.377,21.614 9.446,21.581C9.457,21.576 9.449,21.561 9.439,21.563Z" style="fill:white;fill-rule:nonzero;"/>
        </g>
        <g transform="matrix(4.16667,0,0,4.16667,0,0)">
            <path d="M9.218,21.707C9.241,21.709 9.262,21.711 9.283,21.718L9.283,21.693C9.206,21.709 9.131,21.736 9.054,21.756C8.979,21.776 8.904,21.793 8.828,21.809C8.752,21.825 8.676,21.838 8.6,21.851C8.523,21.865 8.443,21.869 8.366,21.887C8.357,21.889 8.36,21.902 8.368,21.903C8.444,21.905 8.522,21.89 8.597,21.88C8.676,21.87 8.754,21.857 8.832,21.84C8.909,21.825 8.986,21.807 9.063,21.787C9.139,21.767 9.218,21.748 9.29,21.718C9.306,21.711 9.3,21.689 9.283,21.693C9.261,21.697 9.241,21.698 9.218,21.697C9.211,21.697 9.211,21.707 9.218,21.707Z" style="fill:white;fill-rule:nonzero;"/>
        </g>
        <g transform="matrix(4.16667,0,0,4.16667,0,0)">
            <path d="M8.967,21.874C8.866,21.893 8.766,21.915 8.665,21.938C8.565,21.96 8.461,21.976 8.365,22.009C8.354,22.013 8.354,22.033 8.368,22.031C8.468,22.021 8.569,21.992 8.668,21.969C8.77,21.948 8.873,21.925 8.974,21.898C8.989,21.894 8.982,21.872 8.967,21.874Z" style="fill:white;fill-rule:nonzero;"/>
        </g>
        <g transform="matrix(4.16667,0,0,4.16667,0,0)">
            <path d="M8.791,22.025C8.729,22.053 8.666,22.082 8.603,22.11C8.541,22.138 8.476,22.164 8.416,22.197C8.407,22.202 8.413,22.218 8.423,22.214C8.487,22.19 8.549,22.159 8.61,22.129C8.674,22.1 8.738,22.071 8.801,22.04C8.812,22.036 8.802,22.02 8.791,22.025Z" style="fill:white;fill-rule:nonzero;"/>
        </g>
        <g transform="matrix(4.16667,0,0,4.16667,0,0)">
            <path d="M10.622,18.535C10.636,18.517 10.649,18.499 10.665,18.483C10.671,18.475 10.665,18.462 10.654,18.465C10.599,18.478 10.545,18.5 10.491,18.519C10.437,18.538 10.383,18.555 10.328,18.573C10.221,18.608 10.113,18.641 10.005,18.672C9.787,18.735 9.566,18.791 9.344,18.84C9.218,18.868 9.092,18.892 8.966,18.92C8.959,18.921 8.961,18.933 8.968,18.932C9.194,18.904 9.417,18.853 9.639,18.799C9.861,18.746 10.082,18.683 10.3,18.613C10.361,18.593 10.423,18.573 10.483,18.551C10.543,18.531 10.606,18.512 10.662,18.484C10.657,18.479 10.653,18.474 10.648,18.469C10.637,18.49 10.624,18.508 10.611,18.527C10.607,18.534 10.617,18.54 10.622,18.535Z" style="fill:white;fill-rule:nonzero;"/>
        </g>
        <g transform="matrix(4.16667,0,0,4.16667,0,0)">
            <path d="M10.596,18.638C10.62,18.625 10.644,18.613 10.668,18.601C10.68,18.595 10.671,18.575 10.659,18.58C10.47,18.655 10.279,18.722 10.083,18.777C9.887,18.832 9.688,18.871 9.489,18.908C9.48,18.909 9.482,18.923 9.491,18.922C9.693,18.902 9.895,18.858 10.09,18.804C10.288,18.749 10.481,18.683 10.668,18.601C10.664,18.594 10.66,18.587 10.656,18.581C10.634,18.595 10.61,18.609 10.587,18.623C10.577,18.628 10.586,18.644 10.596,18.638Z" style="fill:white;fill-rule:nonzero;"/>
        </g>
        <g transform="matrix(4.16667,0,0,4.16667,0,0)">
            <path d="M10.515,18.722C10.453,18.743 10.393,18.77 10.332,18.791C10.271,18.814 10.208,18.833 10.146,18.853C10.021,18.89 9.894,18.922 9.765,18.946C9.755,18.948 9.76,18.963 9.77,18.961C9.9,18.94 10.03,18.913 10.157,18.874C10.22,18.856 10.282,18.835 10.343,18.813C10.403,18.79 10.465,18.769 10.522,18.739C10.531,18.734 10.525,18.719 10.515,18.722Z" style="fill:white;fill-rule:nonzero;"/>
        </g>
        <g transform="matrix(4.16667,0,0,4.16667,0,0)">
            <path d="M10.568,19.06C10.609,19.052 10.649,19.045 10.69,19.041C10.689,19.034 10.688,19.026 10.687,19.018C10.561,19.056 10.437,19.1 10.311,19.136C10.186,19.172 10.06,19.205 9.934,19.233C9.678,19.291 9.419,19.335 9.159,19.364C9.087,19.372 9.014,19.378 8.941,19.384C8.867,19.391 8.792,19.393 8.718,19.401C8.707,19.403 8.707,19.418 8.718,19.418C8.849,19.422 8.982,19.408 9.112,19.396C9.24,19.383 9.369,19.368 9.496,19.347C9.756,19.307 10.014,19.25 10.267,19.179C10.411,19.139 10.555,19.097 10.693,19.04C10.707,19.036 10.701,19.014 10.687,19.018C10.647,19.032 10.606,19.04 10.565,19.05C10.56,19.052 10.562,19.061 10.568,19.06Z" style="fill:white;fill-rule:nonzero;"/>
        </g>
        <g transform="matrix(4.16667,0,0,4.16667,0,0)">
            <path d="M10.569,19.184C10.504,19.198 10.441,19.226 10.378,19.247C10.317,19.267 10.257,19.287 10.196,19.305C10.071,19.344 9.944,19.379 9.817,19.41C9.561,19.472 9.3,19.521 9.038,19.553C8.89,19.572 8.742,19.585 8.594,19.595C8.585,19.596 8.585,19.61 8.594,19.61C9.123,19.593 9.651,19.499 10.158,19.346C10.229,19.325 10.299,19.302 10.37,19.278C10.438,19.254 10.512,19.234 10.575,19.198C10.583,19.194 10.578,19.182 10.569,19.184Z" style="fill:white;fill-rule:nonzero;"/>
        </g>
        <g transform="matrix(4.16667,0,0,4.16667,0,0)">
            <path d="M10.621,19.285C10.559,19.309 10.499,19.341 10.437,19.367C10.373,19.393 10.307,19.415 10.241,19.435C10.109,19.474 9.976,19.497 9.839,19.516C9.829,19.517 9.831,19.536 9.842,19.536C9.979,19.529 10.117,19.499 10.248,19.46C10.314,19.441 10.379,19.417 10.443,19.39C10.506,19.364 10.571,19.337 10.627,19.298C10.634,19.293 10.63,19.281 10.621,19.285Z" style="fill:white;fill-rule:nonzero;"/>
        </g>
        <g transform="matrix(4.16667,0,0,4.16667,0,0)">
            <path d="M10.76,19.368C10.537,19.495 10.293,19.582 10.041,19.626C10.031,19.628 10.035,19.643 10.045,19.641C10.301,19.607 10.549,19.519 10.771,19.387C10.784,19.38 10.772,19.361 10.76,19.368Z" style="fill:white;fill-rule:nonzero;"/>
        </g>
        <g transform="matrix(4.16667,0,0,4.16667,0,0)">
            <path d="M6.073,18.487C6.665,18.315 7.287,18.257 7.9,18.323C7.987,18.332 8.074,18.344 8.161,18.358C8.248,18.372 8.333,18.391 8.419,18.405C8.428,18.406 8.432,18.393 8.423,18.39C8.347,18.368 8.267,18.353 8.188,18.339C8.115,18.326 8.041,18.314 7.967,18.305C7.813,18.286 7.658,18.275 7.503,18.272C7.193,18.266 6.882,18.291 6.578,18.348C6.406,18.38 6.237,18.425 6.071,18.478C6.065,18.48 6.067,18.489 6.073,18.487Z" style="fill:white;fill-rule:nonzero;"/>
        </g>
        <g transform="matrix(4.16667,0,0,4.16667,0,0)">
            <path d="M6.324,18.64C6.779,18.466 7.275,18.411 7.758,18.473C7.897,18.491 8.034,18.521 8.17,18.552C8.177,18.554 8.18,18.544 8.173,18.541C7.942,18.462 7.69,18.43 7.446,18.425C7.204,18.419 6.96,18.444 6.724,18.498C6.586,18.531 6.451,18.573 6.32,18.624C6.311,18.628 6.314,18.644 6.324,18.64Z" style="fill:white;fill-rule:nonzero;"/>
        </g>
        <g transform="matrix(4.16667,0,0,4.16667,0,0)">
            <path d="M7.097,18.708C7.294,18.672 7.496,18.657 7.696,18.662C7.898,18.666 8.095,18.699 8.293,18.732C8.303,18.733 8.308,18.719 8.298,18.717C8.104,18.662 7.896,18.645 7.696,18.642C7.494,18.639 7.292,18.658 7.093,18.696C7.084,18.697 7.088,18.71 7.097,18.708Z" style="fill:white;fill-rule:nonzero;"/>
        </g>
        <g transform="matrix(4.16667,0,0,4.16667,0,0)">
            <path d="M10.718,17.89C10.493,17.934 10.266,17.97 10.037,17.989C9.811,18.007 9.583,18.012 9.356,18.002C9.227,17.997 9.098,17.984 8.969,17.974C8.961,17.973 8.959,17.986 8.967,17.988C9.192,18.024 9.425,18.033 9.653,18.032C9.882,18.031 10.109,18.012 10.335,17.98C10.466,17.961 10.595,17.938 10.723,17.907C10.734,17.905 10.729,17.888 10.718,17.89Z" style="fill:white;fill-rule:nonzero;"/>
        </g>
        <g transform="matrix(4.16667,0,0,4.16667,0,0)">
            <path d="M10.704,17.986C10.706,17.987 10.713,17.967 10.705,17.991C10.702,18 10.701,18 10.691,18.003C10.681,18.006 10.669,18.007 10.658,18.009C10.633,18.014 10.608,18.02 10.583,18.025C10.537,18.035 10.491,18.043 10.445,18.052C10.346,18.071 10.247,18.086 10.148,18.1C9.958,18.124 9.766,18.139 9.574,18.145C9.464,18.148 9.354,18.149 9.243,18.148C9.234,18.148 9.234,18.163 9.243,18.163C9.485,18.178 9.729,18.17 9.97,18.146C10.088,18.134 10.206,18.118 10.323,18.098C10.442,18.079 10.562,18.057 10.679,18.024C10.695,18.019 10.716,18.015 10.724,17.998C10.728,17.989 10.729,17.978 10.72,17.973C10.709,17.966 10.682,17.98 10.698,17.993C10.702,17.996 10.709,17.99 10.704,17.986Z" style="fill:white;fill-rule:nonzero;"/>
        </g>
        <g transform="matrix(4.16667,0,0,4.16667,0,0)">
            <path d="M10.717,18.056C10.662,18.128 10.574,18.163 10.488,18.183C10.385,18.207 10.279,18.222 10.174,18.235C9.957,18.263 9.737,18.275 9.518,18.271C9.392,18.269 9.268,18.256 9.143,18.253C9.135,18.253 9.133,18.266 9.141,18.268C9.251,18.288 9.367,18.291 9.479,18.295C9.597,18.298 9.715,18.297 9.833,18.291C9.949,18.287 10.064,18.276 10.18,18.261C10.285,18.248 10.392,18.233 10.495,18.207C10.587,18.185 10.68,18.148 10.733,18.066C10.74,18.055 10.724,18.046 10.717,18.056Z" style="fill:white;fill-rule:nonzero;"/>
        </g>
        <g transform="matrix(4.16667,0,0,4.16667,0,0)">
            <path d="M10.646,18.207C10.345,18.392 9.986,18.426 9.64,18.421C9.541,18.42 9.442,18.415 9.343,18.415C9.331,18.415 9.331,18.432 9.343,18.433C9.521,18.449 9.704,18.451 9.882,18.44C10.054,18.43 10.228,18.406 10.391,18.349C10.483,18.317 10.571,18.273 10.652,18.219C10.66,18.214 10.653,18.204 10.646,18.207Z" style="fill:white;fill-rule:nonzero;"/>
        </g>
        <g transform="matrix(4.16667,0,0,4.16667,0,0)">
            <path d="M2.573,17.853C2.655,17.823 2.737,17.793 2.819,17.763C2.898,17.734 2.979,17.707 3.056,17.671C3.062,17.668 3.058,17.658 3.051,17.66C2.969,17.683 2.889,17.716 2.81,17.746C2.729,17.776 2.649,17.806 2.569,17.837C2.559,17.84 2.563,17.856 2.573,17.853Z" style="fill:white;fill-rule:nonzero;"/>
        </g>
        <g transform="matrix(4.16667,0,0,4.16667,0,0)">
            <path d="M2.58,17.963C2.68,17.903 2.786,17.851 2.896,17.809C2.949,17.789 3.002,17.771 3.057,17.754C3.112,17.738 3.17,17.727 3.225,17.707C3.23,17.706 3.229,17.697 3.224,17.698C3.167,17.7 3.109,17.717 3.056,17.732C2.998,17.748 2.941,17.768 2.885,17.79C2.776,17.833 2.672,17.888 2.572,17.952C2.565,17.957 2.572,17.968 2.58,17.963Z" style="fill:white;fill-rule:nonzero;"/>
        </g>
        <g transform="matrix(4.16667,0,0,4.16667,0,0)">
            <path d="M2.978,17.866C3.103,17.833 3.228,17.802 3.351,17.763C3.359,17.76 3.356,17.748 3.348,17.75C3.222,17.778 3.097,17.814 2.973,17.848C2.961,17.851 2.966,17.87 2.978,17.866Z" style="fill:white;fill-rule:nonzero;"/>
        </g>
        <g transform="matrix(4.16667,0,0,4.16667,0,0)">
            <path d="M3.202,17.89C3.277,17.866 3.354,17.844 3.427,17.816C3.435,17.813 3.432,17.801 3.424,17.804C3.348,17.825 3.274,17.853 3.199,17.879C3.193,17.881 3.195,17.892 3.202,17.89Z" style="fill:white;fill-rule:nonzero;"/>
        </g>
        <g transform="matrix(4.16667,0,0,4.16667,0,0)">
            <path d="M3.375,17.889C3.385,17.889 3.385,17.873 3.375,17.873C3.364,17.873 3.364,17.889 3.375,17.889Z" style="fill:white;fill-rule:nonzero;"/>
        </g>
        <g transform="matrix(4.16667,0,0,4.16667,0,0)">
            <path d="M10.594,17.788C10.652,17.776 10.711,17.765 10.77,17.753C10.798,17.748 10.828,17.743 10.857,17.736C10.886,17.73 10.916,17.725 10.944,17.715C10.952,17.713 10.951,17.7 10.942,17.7C10.914,17.703 10.886,17.709 10.858,17.714C10.828,17.72 10.797,17.727 10.767,17.734C10.708,17.747 10.649,17.759 10.589,17.773C10.58,17.775 10.584,17.79 10.594,17.788Z" style="fill:white;fill-rule:nonzero;"/>
        </g>
        <g transform="matrix(4.16667,0,0,4.16667,0,0)">
            <path d="M10.792,17.641C10.858,17.642 10.925,17.642 10.991,17.643C11.057,17.643 11.126,17.646 11.191,17.638C11.199,17.636 11.199,17.626 11.191,17.625C11.126,17.617 11.057,17.621 10.991,17.621C10.925,17.621 10.858,17.622 10.792,17.622C10.779,17.622 10.779,17.641 10.792,17.641Z" style="fill:white;fill-rule:nonzero;"/>
        </g>
        <g transform="matrix(4.16667,0,0,4.16667,0,0)">
            <path d="M10.991,17.516C11.097,17.518 11.2,17.555 11.287,17.615C11.295,17.621 11.306,17.606 11.298,17.6C11.277,17.583 11.254,17.566 11.231,17.553C11.207,17.54 11.181,17.53 11.155,17.521C11.103,17.503 11.047,17.494 10.991,17.494C10.977,17.494 10.977,17.516 10.991,17.516Z" style="fill:white;fill-rule:nonzero;"/>
        </g>
        <g transform="matrix(4.16667,0,0,4.16667,0,0)">
            <path d="M11.191,17.544C11.213,17.544 11.234,17.548 11.254,17.556C11.273,17.565 11.293,17.576 11.309,17.589C11.317,17.596 11.328,17.585 11.321,17.577C11.305,17.558 11.286,17.543 11.263,17.534C11.241,17.524 11.216,17.519 11.191,17.518C11.175,17.518 11.175,17.544 11.191,17.544Z" style="fill:white;fill-rule:nonzero;"/>
        </g>
        <g transform="matrix(4.16667,0,0,4.16667,0,0)">
            <path d="M11.64,19.08C11.641,19.083 11.643,19.087 11.643,19.091C11.643,19.095 11.643,19.097 11.644,19.101C11.646,19.108 11.647,19.116 11.649,19.123C11.652,19.137 11.655,19.152 11.656,19.166C11.658,19.181 11.657,19.196 11.657,19.21C11.658,19.225 11.658,19.24 11.657,19.254C11.657,19.263 11.668,19.263 11.67,19.256C11.676,19.243 11.681,19.226 11.683,19.21C11.685,19.195 11.684,19.178 11.683,19.163C11.681,19.147 11.679,19.131 11.674,19.116C11.672,19.109 11.67,19.101 11.668,19.094C11.665,19.086 11.659,19.081 11.655,19.073C11.65,19.065 11.638,19.071 11.64,19.08Z" style="fill:white;fill-rule:nonzero;"/>
        </g>
        <g transform="matrix(4.16667,0,0,4.16667,0,0)">
            <path d="M11.582,19.207C11.606,19.289 11.609,19.371 11.608,19.455C11.608,19.462 11.619,19.463 11.621,19.457C11.644,19.373 11.63,19.283 11.603,19.202C11.598,19.188 11.578,19.194 11.582,19.207Z" style="fill:white;fill-rule:nonzero;"/>
        </g>
        <g transform="matrix(4.16667,0,0,4.16667,0,0)">
            <path d="M11.554,19.305L11.554,19.405C11.554,19.438 11.554,19.471 11.558,19.504C11.559,19.515 11.573,19.515 11.574,19.504C11.578,19.471 11.577,19.438 11.577,19.405L11.577,19.305C11.577,19.29 11.554,19.29 11.554,19.305Z" style="fill:white;fill-rule:nonzero;"/>
        </g>
        <g transform="matrix(4.16667,0,0,4.16667,0,0)">
            <path d="M11.516,19.404C11.487,19.436 11.468,19.475 11.462,19.518C11.46,19.539 11.459,19.559 11.461,19.581C11.464,19.598 11.467,19.626 11.483,19.637C11.487,19.64 11.494,19.637 11.494,19.633C11.496,19.623 11.493,19.617 11.491,19.608C11.488,19.599 11.486,19.589 11.485,19.581C11.482,19.561 11.482,19.541 11.484,19.523C11.49,19.485 11.506,19.448 11.531,19.419C11.541,19.409 11.525,19.393 11.516,19.404Z" style="fill:white;fill-rule:nonzero;"/>
        </g>
        <g transform="matrix(4.16667,0,0,4.16667,0,0)">
            <path d="M11.488,19.454C11.439,19.527 11.406,19.615 11.406,19.705C11.407,19.711 11.417,19.711 11.418,19.705C11.428,19.618 11.455,19.535 11.504,19.463C11.511,19.454 11.495,19.444 11.488,19.454Z" style="fill:white;fill-rule:nonzero;"/>
        </g>
        <g transform="matrix(4.16667,0,0,4.16667,0,0)">
            <path d="M11.362,19.648C11.325,19.667 11.294,19.699 11.275,19.736C11.257,19.771 11.245,19.818 11.259,19.856C11.262,19.864 11.272,19.862 11.272,19.854C11.274,19.835 11.273,19.817 11.277,19.798C11.281,19.781 11.287,19.762 11.295,19.746C11.313,19.712 11.339,19.684 11.373,19.666C11.386,19.661 11.375,19.642 11.362,19.648Z" style="fill:white;fill-rule:nonzero;"/>
        </g>
        <g transform="matrix(4.16667,0,0,4.16667,0,0)">
            <path d="M2.419,19.205C2.417,19.217 2.414,19.228 2.414,19.24L2.414,19.352C2.413,19.403 2.416,19.454 2.418,19.504C2.418,19.514 2.433,19.514 2.433,19.504C2.436,19.454 2.437,19.403 2.437,19.352L2.437,19.24C2.437,19.228 2.433,19.217 2.432,19.205C2.431,19.197 2.42,19.197 2.419,19.205Z" style="fill:white;fill-rule:nonzero;"/>
        </g>
        <g transform="matrix(4.16667,0,0,4.16667,0,0)">
            <path d="M2.518,19.453C2.507,19.507 2.507,19.566 2.51,19.622C2.512,19.649 2.515,19.677 2.52,19.705C2.525,19.731 2.53,19.759 2.541,19.784C2.544,19.791 2.557,19.788 2.556,19.78C2.554,19.754 2.547,19.729 2.544,19.705C2.54,19.675 2.537,19.647 2.535,19.619C2.531,19.564 2.535,19.509 2.537,19.455C2.537,19.444 2.52,19.442 2.518,19.453Z" style="fill:white;fill-rule:nonzero;"/>
        </g>
        <g transform="matrix(4.16667,0,0,4.16667,0,0)">
            <path d="M2.62,19.579C2.627,19.647 2.635,19.715 2.643,19.783C2.647,19.817 2.651,19.851 2.656,19.884C2.66,19.915 2.661,19.951 2.671,19.981C2.674,19.99 2.686,19.988 2.687,19.979C2.689,19.946 2.682,19.91 2.678,19.876C2.674,19.844 2.67,19.812 2.666,19.78C2.656,19.712 2.647,19.644 2.638,19.577C2.637,19.566 2.619,19.569 2.62,19.579Z" style="fill:white;fill-rule:nonzero;"/>
        </g>
        <g transform="matrix(4.16667,0,0,4.16667,0,0)">
            <path d="M2.716,19.777C2.695,19.832 2.687,19.891 2.692,19.95C2.694,19.978 2.7,20.006 2.708,20.034C2.716,20.058 2.726,20.091 2.745,20.109C2.75,20.114 2.759,20.109 2.757,20.102C2.754,20.088 2.747,20.076 2.741,20.063C2.737,20.051 2.732,20.04 2.729,20.028C2.72,20 2.714,19.973 2.712,19.945C2.708,19.889 2.715,19.833 2.735,19.782C2.739,19.771 2.721,19.766 2.716,19.777Z" style="fill:white;fill-rule:nonzero;"/>
        </g>
        <g transform="matrix(4.16667,0,0,4.16667,0,0)">
            <path d="M2.84,19.901C2.817,19.959 2.805,20.021 2.805,20.082C2.804,20.113 2.806,20.142 2.811,20.172C2.815,20.201 2.821,20.236 2.837,20.259C2.841,20.265 2.851,20.263 2.851,20.256C2.849,20.229 2.838,20.203 2.833,20.175C2.827,20.145 2.825,20.114 2.825,20.082C2.825,20.022 2.837,19.962 2.858,19.907C2.863,19.895 2.844,19.89 2.84,19.901Z" style="fill:white;fill-rule:nonzero;"/>
        </g>
        <g transform="matrix(4.16667,0,0,4.16667,0,0)">
            <path d="M2.889,20.182C2.897,20.204 2.906,20.225 2.915,20.246C2.919,20.256 2.924,20.266 2.929,20.276C2.933,20.287 2.939,20.296 2.944,20.307C2.947,20.314 2.958,20.309 2.956,20.302C2.953,20.29 2.95,20.28 2.946,20.269C2.942,20.258 2.939,20.248 2.936,20.239C2.928,20.217 2.919,20.197 2.911,20.176C2.908,20.17 2.903,20.166 2.897,20.168C2.892,20.169 2.887,20.176 2.889,20.182Z" style="fill:white;fill-rule:nonzero;"/>
        </g>
        <g transform="matrix(4.16667,0,0,4.16667,0,0)">
            <path d="M6.417,21C6.671,21.04 6.928,21.058 7.185,21.066C7.444,21.074 7.705,21.067 7.964,21.047C8.108,21.037 8.252,21.024 8.395,21.001C8.403,21 8.401,20.986 8.393,20.987C8.136,21.013 7.88,21.04 7.622,21.047C7.366,21.055 7.109,21.05 6.854,21.033C6.708,21.022 6.563,21.007 6.419,20.993C6.414,20.992 6.413,21 6.417,21Z" style="fill:white;fill-rule:nonzero;"/>
        </g>
        <g transform="matrix(4.16667,0,0,4.16667,0,0)">
            <path d="M7.045,20.95C7.021,20.951 6.996,20.951 6.971,20.951C6.968,20.951 6.968,20.956 6.971,20.956C6.996,20.956 7.021,20.956 7.045,20.957C7.05,20.957 7.05,20.95 7.045,20.95Z" style="fill:white;fill-rule:nonzero;"/>
        </g>
        <g transform="matrix(4.16667,0,0,4.16667,0,0)">
            <path d="M6.541,20.963C6.539,20.946 6.538,20.948 6.551,20.947C6.556,20.947 6.56,20.947 6.564,20.948C6.577,20.949 6.589,20.95 6.602,20.951C6.631,20.954 6.66,20.956 6.688,20.957C6.745,20.961 6.8,20.963 6.856,20.965C6.968,20.967 7.08,20.967 7.192,20.961C7.413,20.953 7.633,20.929 7.852,20.892C7.976,20.871 8.101,20.847 8.222,20.812C8.232,20.808 8.228,20.792 8.217,20.794C8.084,20.82 7.952,20.85 7.818,20.872C7.684,20.894 7.549,20.911 7.413,20.922C7.146,20.946 6.876,20.949 6.607,20.936C6.597,20.935 6.497,20.924 6.517,20.965C6.522,20.977 6.551,20.98 6.545,20.962C6.544,20.96 6.541,20.961 6.541,20.963Z" style="fill:white;fill-rule:nonzero;"/>
        </g>
        <g transform="matrix(4.16667,0,0,4.16667,0,0)">
            <path d="M6.72,20.821C6.927,20.834 7.134,20.834 7.34,20.819C7.542,20.804 7.749,20.781 7.946,20.732C7.953,20.73 7.95,20.719 7.942,20.72C7.738,20.752 7.536,20.785 7.33,20.8C7.127,20.816 6.923,20.819 6.72,20.811C6.714,20.811 6.714,20.821 6.72,20.821Z" style="fill:white;fill-rule:nonzero;"/>
        </g>
        <g transform="matrix(4.16667,0,0,4.16667,0,0)">
            <path d="M7.195,20.681L7.245,20.681C7.249,20.681 7.249,20.676 7.245,20.676C7.229,20.675 7.212,20.675 7.195,20.675C7.191,20.675 7.191,20.681 7.195,20.681Z" style="fill:white;fill-rule:nonzero;"/>
        </g>
        <g transform="matrix(4.16667,0,0,4.16667,0,0)">
            <path d="M6.546,21.635C7.033,21.644 7.521,21.625 8.007,21.59C8.145,21.581 8.282,21.569 8.418,21.553C8.426,21.552 8.427,21.54 8.418,21.541C7.932,21.575 7.446,21.606 6.959,21.617C6.821,21.62 6.684,21.623 6.546,21.625C6.54,21.625 6.54,21.634 6.546,21.635Z" style="fill:white;fill-rule:nonzero;"/>
        </g>
        <g transform="matrix(4.16667,0,0,4.16667,0,0)">
            <path d="M6.771,21.539C7.113,21.527 7.454,21.502 7.794,21.479C7.8,21.478 7.8,21.47 7.794,21.47C7.453,21.485 7.112,21.499 6.771,21.526C6.763,21.527 6.763,21.539 6.771,21.539Z" style="fill:white;fill-rule:nonzero;"/>
        </g>
        <g transform="matrix(4.16667,0,0,4.16667,0,0)">
            <path d="M7.021,21.36C7.079,21.359 7.137,21.359 7.195,21.357C7.2,21.356 7.2,21.349 7.195,21.349C7.137,21.346 7.079,21.346 7.021,21.345C7.011,21.345 7.011,21.36 7.021,21.36Z" style="fill:white;fill-rule:nonzero;"/>
        </g>
        <g transform="matrix(4.16667,0,0,4.16667,0,0)">
            <path d="M5.469,22.293C5.785,22.352 6.107,22.38 6.428,22.39C6.749,22.401 7.07,22.392 7.389,22.363C7.567,22.346 7.747,22.325 7.923,22.29C7.931,22.289 7.929,22.274 7.92,22.275C7.603,22.318 7.285,22.355 6.963,22.367C6.645,22.378 6.325,22.371 6.008,22.342C5.828,22.327 5.649,22.305 5.47,22.282C5.463,22.281 5.462,22.292 5.469,22.293Z" style="fill:white;fill-rule:nonzero;"/>
        </g>
        <g transform="matrix(4.16667,0,0,4.16667,0,0)">
            <path d="M6.22,22.422C6.773,22.483 7.335,22.472 7.888,22.409C8.041,22.391 8.196,22.371 8.347,22.337C8.353,22.335 8.351,22.326 8.345,22.327C8.068,22.36 7.794,22.402 7.516,22.42C7.242,22.44 6.966,22.445 6.692,22.437C6.534,22.432 6.377,22.424 6.22,22.413C6.213,22.412 6.213,22.422 6.22,22.422Z" style="fill:white;fill-rule:nonzero;"/>
        </g>
        <g transform="matrix(4.16667,0,0,4.16667,0,0)">
            <path d="M6.295,22.512C6.782,22.577 7.275,22.571 7.76,22.501C7.897,22.482 8.036,22.458 8.168,22.421C8.175,22.419 8.172,22.41 8.166,22.411C8.044,22.43 7.924,22.456 7.803,22.473C7.68,22.491 7.558,22.506 7.435,22.516C7.192,22.538 6.948,22.542 6.705,22.533C6.568,22.527 6.432,22.517 6.295,22.503C6.29,22.502 6.291,22.511 6.295,22.512Z" style="fill:white;fill-rule:nonzero;"/>
        </g>
        <g transform="matrix(4.16667,0,0,4.16667,0,0)">
            <path d="M6.696,22.607C6.907,22.606 7.118,22.595 7.329,22.576C7.535,22.556 7.745,22.535 7.948,22.492C7.956,22.49 7.954,22.477 7.946,22.478C7.738,22.505 7.532,22.539 7.323,22.559C7.115,22.579 6.905,22.59 6.696,22.597C6.689,22.597 6.689,22.607 6.696,22.607Z" style="fill:white;fill-rule:nonzero;"/>
        </g>
        <g transform="matrix(4.16667,0,0,4.16667,0,0)">
            <path d="M3.774,19.252C4.143,19.198 4.513,19.156 4.885,19.128C5.253,19.101 5.623,19.088 5.993,19.091C6.202,19.093 6.412,19.098 6.621,19.108C6.629,19.109 6.629,19.096 6.621,19.096C6.249,19.075 5.875,19.068 5.502,19.079C5.13,19.09 4.76,19.116 4.391,19.159C4.184,19.183 3.978,19.211 3.772,19.247C3.769,19.248 3.77,19.252 3.774,19.252Z" style="fill:white;fill-rule:nonzero;"/>
        </g>
        <g transform="matrix(4.16667,0,0,4.16667,0,0)">
            <path d="M7.82,19.214C7.832,19.214 7.832,19.196 7.82,19.196C7.808,19.196 7.808,19.214 7.82,19.214Z" style="fill:white;fill-rule:nonzero;"/>
        </g>
    </g>
    <defs>
        <linearGradient id="_Linear1" x1="0" y1="0" x2="1" y2="0" gradientUnits="userSpaceOnUse" gradientTransform="matrix(3200,0,0,3200,0,0)"><stop offset="0" style="stop-color:rgb(207,48,48);stop-opacity:1"/><stop offset="1" style="stop-color:rgb(207,48,48);stop-opacity:1"/></linearGradient>
    </defs>
</svg>
